<?xml version="1.0" encoding="UTF-8"?>
<svg id="Layer_2" data-name="Layer 2" xmlns="http://www.w3.org/2000/svg" viewBox="0 0 818.8 768.35">
  <defs>
    <style>
      .cls-1 {
        fill: #dc2627;
      }
    </style>
  </defs>
  <g id="icon">
    <path class="cls-1" d="M409.4,0C183.3,0,0,172,0,384.18c0,82.55,27.75,159.02,74.97,221.64l-48.31,145.91c-3.24,9.79,6.11,19.07,15.88,15.76l157.16-53.3c61.34,34.4,133.06,54.17,209.71,54.17,226.11,0,409.4-172,409.4-384.18S635.51,0,409.4,0ZM551.45,494.45c-2.27,65.62-49.75,120.75-115.04,131.03-80.55,12.68-154.9-48.8-157.27-130.39V235.16c.97-22.24,9.53-44.49,24.47-61.22,56.23-62.96,159.61-29.62,169.51,53.58,1.41,88.39-.13,176.86.42,265.28-4.74,73.99-109.62,75.6-116.69,1.86l.27-239.31c3.96-23.16,36.26-21.98,38.73,1.23v236.22c2.89,23.79,36.29,23.36,38.73-.41V233.91c-7.95-72.65-111.09-70.47-116.46,2.07v258.28c2.51,58.41,54.46,101.88,112.33,92.68,46.24-7.35,80.01-45.92,82.05-92.48V237.83c1.82-23.76,33.96-25.38,38.69-2.68.65,86.4.07,172.88.27,259.31Z"/>
  </g>
</svg>