<?xml version="1.0" encoding="UTF-8"?>
<svg id="Layer_2" data-name="Layer 2" xmlns="http://www.w3.org/2000/svg" viewBox="0 0 818.8 768.35">
  <defs>
    <style>
      .cls-1 {
        fill: #dc2627;
      }

      .cls-2 {
        fill: #fff;
      }
    </style>
  </defs>
  <g id="icon">
    <g>
      <path class="cls-1" d="M409.4,0C183.3,0,0,172,0,384.18c0,82.55,27.75,159.02,74.97,221.64l-48.31,145.91c-3.24,9.79,6.11,19.07,15.88,15.76l157.16-53.3c61.34,34.4,133.06,54.17,209.71,54.17,226.11,0,409.4-172,409.4-384.18S635.51,0,409.4,0Z"/>
      <path class="cls-2" d="M430.5,625.48c65.29-10.28,112.76-65.41,115.04-131.03-.2-86.43.37-172.9-.27-259.31-4.72-22.7-36.87-21.07-38.69,2.68v256.63c-2.04,46.56-35.8,85.13-82.05,92.48-57.87,9.2-109.82-34.26-112.34-92.68V235.98c5.38-72.54,108.52-74.72,116.47-2.07v258.48c-2.44,23.78-35.84,24.21-38.74.41v-236.22c-2.46-23.22-34.76-24.4-38.72-1.23l-.27,239.31c7.07,73.74,111.95,72.13,116.69-1.86-.55-88.42.99-176.9-.42-265.28-9.9-83.2-113.27-116.55-169.51-53.58-14.94,16.73-23.5,38.98-24.45,61.22v259.92c2.36,81.59,76.71,143.07,157.26,130.39Z"/>
    </g>
  </g>
</svg>